<?xml version="1.0" encoding="UTF-8"?>
<svg xmlns="http://www.w3.org/2000/svg" xmlns:xlink="http://www.w3.org/1999/xlink" viewBox="0 0 50 50" width="50px" height="50px">
<g id="surface6273390">
<path style=" stroke:none;fill-rule:nonzero;fill:rgb(11.372549%,72.549021%,32.941177%);fill-opacity:1;" d="M 25.007812 1.980469 C 12.320312 1.980469 2 12.304688 2 24.992188 C 2 37.679688 12.320312 48 25.007812 48 C 37.695312 48 48.019531 37.679688 48.019531 24.992188 C 48.019531 12.304688 37.695312 1.980469 25.007812 1.980469 Z M 34.746094 35.332031 C 34.460938 35.765625 33.984375 36 33.496094 36 C 33.210938 36 32.921875 35.921875 32.667969 35.75 C 30.195312 34.101562 26 33 22.5 33 C 18.785156 33.003906 16.003906 33.914062 15.972656 33.925781 C 15.191406 34.191406 14.339844 33.761719 14.078125 32.976562 C 13.816406 32.191406 14.238281 31.339844 15.027344 31.078125 C 15.15625 31.035156 18.304688 30.003906 22.5 30.003906 C 26 30 30.867188 30.945312 34.332031 33.253906 C 35.023438 33.714844 35.207031 34.644531 34.746094 35.332031 Z M 37.738281 29.191406 C 37.414062 29.714844 36.855469 30.003906 36.28125 30.003906 C 35.972656 30.003906 35.65625 29.917969 35.375 29.742188 C 30.890625 26.949219 26.28125 26.355469 22.3125 26.390625 C 17.832031 26.433594 14.246094 27.285156 14.1875 27.304688 C 13.277344 27.5625 12.324219 27.03125 12.066406 26.121094 C 11.808594 25.210938 12.339844 24.261719 13.25 24.003906 C 13.527344 23.921875 17.105469 23.042969 22 23.003906 C 26.464844 22.964844 32.03125 23.613281 37.191406 26.828125 C 37.996094 27.328125 38.242188 28.386719 37.738281 29.191406 Z M 40.726562 22.011719 C 40.351562 22.648438 39.683594 23 38.996094 23 C 38.652344 23 38.304688 22.910156 37.988281 22.726562 C 32.761719 19.65625 26.40625 19.007812 21.996094 19 C 21.976562 19 21.953125 19 21.933594 19 C 16.601562 19 12.492188 19.9375 12.453125 19.949219 C 11.375 20.195312 10.300781 19.527344 10.050781 18.453125 C 9.800781 17.378906 10.46875 16.304688 11.542969 16.054688 C 11.730469 16.011719 16.117188 15 21.933594 15 C 21.957031 15 21.980469 15 22.003906 15 C 26.90625 15.007812 34.015625 15.753906 40.011719 19.273438 C 40.964844 19.835938 41.285156 21.0625 40.726562 22.011719 Z M 40.726562 22.011719 "/>
</g>
</svg>
